<svg id="icons" enable-background="new 0 0 64 64" height="64" viewBox="0 0 64 64" width="64" xmlns="http://www.w3.org/2000/svg"><g><g><g><path d="m19.501 6c-.367 0-.72-.202-.896-.553l-2-4c-.247-.494-.047-1.095.447-1.342.494-.246 1.095-.047 1.342.447l2 4c.247.494.047 1.095-.447 1.342-.143.072-.296.106-.446.106z"/></g><g><path d="m30.499 6c-.15 0-.303-.034-.446-.105-.494-.247-.694-.848-.447-1.342l2-4c.248-.494.849-.693 1.342-.447.493.247.694.848.446 1.342l-2 4c-.175.35-.528.552-.895.552z"/></g><g><path d="m30.5 6h-11c-.553 0-1-.447-1-1s.447-1 1-1h11c.553 0 1 .447 1 1s-.447 1-1 1z"/></g></g><g><path d="m41.5 5h-10.5c-.553 0-1-.447-1-1s.447-1 1-1h10.5c.553 0 1 .447 1 1s-.447 1-1 1z"/></g><g><path d="m19 5h-10.5c-.553 0-1-.447-1-1s.447-1 1-1h10.5c.553 0 1 .447 1 1s-.447 1-1 1z"/></g><g><path d="m30.5 50h-25c-.553 0-1-.447-1-1v-48c0-.553.447-1 1-1h39c.553 0 1 .447 1 1v34c0 .553-.447 1-1 1s-1-.447-1-1v-33h-37v46h24c.553 0 1 .447 1 1s-.447 1-1 1z"/></g><g><path d="m30.823 47h-22.323c-.553 0-1-.447-1-1v-42c0-.553.447-1 1-1s1 .447 1 1v41h21.323c.553 0 1 .447 1 1s-.447 1-1 1z"/></g><g><path d="m41.5 36.322c-.553 0-1-.446-1-1v-31.322c0-.553.447-1 1-1s1 .447 1 1v31.322c0 .554-.447 1-1 1z"/></g><g><g><g><g><path d="m15.498 40.001c-.265 0-.528-.104-.725-.312l-.95-.998c-.381-.4-.364-1.033.035-1.414.4-.381 1.033-.364 1.414.035l.95.998c.381.4.365 1.033-.035 1.414-.193.185-.441.277-.689.277z"/></g><g><path d="m15.498 40.001c-.256 0-.512-.099-.707-.293-.391-.392-.391-1.022 0-1.414l3.001-3.001c.391-.391 1.023-.391 1.414 0s.391 1.023 0 1.414l-3.001 3.001c-.195.194-.451.293-.707.293z"/></g></g></g><g><path d="m32.499 37.002h-9c-.553 0-1-.447-1-1s.447-1 1-1h9c.553 0 1 .447 1 1s-.447 1-1 1z"/></g><g><path d="m28.498 40.001h-4.999c-.553 0-1-.446-1-1s.447-1 1-1h4.999c.553 0 1 .446 1 1s-.447 1-1 1z"/></g><g><g><g><path d="m15.498 32.005c-.265 0-.528-.104-.725-.311l-.95-.999c-.381-.4-.364-1.033.035-1.414.4-.38 1.033-.364 1.414.035l.95.999c.381.4.365 1.033-.035 1.414-.193.184-.441.276-.689.276z"/></g><g><path d="m15.498 32.005c-.256 0-.512-.098-.707-.293-.391-.391-.391-1.023 0-1.414l3.001-3.001c.391-.391 1.023-.391 1.414 0s.391 1.023 0 1.414l-3.001 3.001c-.195.195-.451.293-.707.293z"/></g></g></g><g><path d="m36.5 29.006h-13.001c-.553 0-1-.447-1-1s.447-1 1-1h13.001c.553 0 1 .447 1 1s-.447 1-1 1z"/></g><g><path d="m28.498 32.005h-4.999c-.553 0-1-.447-1-1s.447-1 1-1h4.999c.553 0 1 .447 1 1s-.447 1-1 1z"/></g><g><g><g><path d="m15.498 16.001c-.265 0-.528-.104-.725-.311l-.95-.999c-.381-.4-.364-1.033.035-1.414.4-.379 1.033-.364 1.414.035l.95.999c.381.4.365 1.033-.035 1.414-.193.184-.441.276-.689.276z"/></g><g><path d="m15.498 16.001c-.256 0-.512-.098-.707-.293-.391-.391-.391-1.023 0-1.414l3.001-3.001c.391-.391 1.023-.391 1.414 0s.391 1.023 0 1.414l-3.001 3.001c-.195.195-.451.293-.707.293z"/></g></g></g><g><path d="m36.5 13.002h-13.001c-.553 0-1-.447-1-1s.447-1 1-1h13.001c.553 0 1 .447 1 1s-.447 1-1 1z"/></g><g><path d="m28.498 16.001h-4.999c-.553 0-1-.447-1-1s.447-1 1-1h4.999c.553 0 1 .447 1 1s-.447 1-1 1z"/></g><g><g><g><path d="m15.498 24.009c-.265 0-.528-.104-.725-.311l-.95-.999c-.381-.4-.364-1.033.035-1.414.4-.38 1.033-.364 1.414.035l.95.999c.381.4.365 1.033-.035 1.414-.193.184-.441.276-.689.276z"/></g><g><path d="m15.498 24.009c-.256 0-.512-.098-.707-.293-.391-.391-.391-1.023 0-1.414l3.001-3.001c.391-.391 1.023-.391 1.414 0s.391 1.022 0 1.414l-3.001 3.001c-.195.195-.451.293-.707.293z"/></g></g></g><g><path d="m36.5 21.01h-13.001c-.553 0-1-.447-1-1s.447-1 1-1h13.001c.553 0 1 .447 1 1s-.447 1-1 1z"/></g><g><path d="m28.498 24.009h-4.999c-.553 0-1-.447-1-1s.447-1 1-1h4.999c.553 0 1 .447 1 1s-.447 1-1 1z"/></g></g><g><path d="m44.5 64c-8.271 0-15-6.729-15-15s6.729-15 15-15 15 6.729 15 15-6.729 15-15 15zm0-28c-7.168 0-13 5.832-13 13s5.832 13 13 13 13-5.832 13-13-5.832-13-13-13z"/></g><g><g><path d="m40.495 46.499c-.554 0-1-.446-1-1 0-.552-.448-1-1-1s-1 .448-1 1c0 .554-.447 1-1 1-.554 0-1-.446-1-1 0-1.653 1.346-3 3-3 1.653 0 3 1.347 3 3 0 .554-.447 1-1 1z"/></g><g><path d="m38.495 55.501c-1.654 0-3-1.347-3-3 0-.554.446-1 1-1 .553 0 1 .446 1 1 0 .552.448 1 1 1s1-.448 1-1c0-.554.446-1 1-1 .553 0 1 .446 1 1 0 1.653-1.347 3-3 3z"/></g><g><path d="m36.495 53.501c-.554 0-1-.446-1-1v-7.002c0-.554.446-1 1-1 .553 0 1 .446 1 1v7.002c0 .554-.447 1-1 1z"/></g><g><path d="m40.495 53.501c-.554 0-1-.446-1-1v-7.002c0-.554.446-1 1-1 .553 0 1 .446 1 1v7.002c0 .554-.447 1-1 1z"/></g><g><path d="m52.494 46.499c-.553 0-1-.446-1-1 0-.552-.448-1-1-1-.553 0-1 .448-1 1 0 .554-.447 1-1 1s-1-.446-1-1c0-1.653 1.346-3 3-3s3 1.347 3 3c0 .554-.447 1-1 1z"/></g><g><path d="m50.494 55.501c-1.654 0-3-1.347-3-3 0-.554.447-1 1-1s1 .446 1 1c0 .552.447 1 1 1 .552 0 1-.448 1-1 0-.554.447-1 1-1s1 .446 1 1c0 1.653-1.346 3-3 3z"/></g><g><path d="m48.494 53.501c-.553 0-1-.446-1-1v-7.002c0-.554.447-1 1-1s1 .446 1 1v7.002c0 .554-.447 1-1 1z"/></g><g><path d="m52.494 53.501c-.553 0-1-.446-1-1v-7.002c0-.554.447-1 1-1s1 .446 1 1v7.002c0 .554-.447 1-1 1z"/></g><g><path d="m48.494 48.499h-7.999c-.554 0-1-.446-1-1s.446-1 1-1h7.999c.553 0 1 .446 1 1s-.447 1-1 1z"/></g><g><path d="m48.494 51.499h-7.999c-.554 0-1-.446-1-1s.446-1 1-1h7.999c.553 0 1 .446 1 1s-.447 1-1 1z"/></g><g><path d="m53.494 49.999h-1c-.553 0-1-.446-1-1s.447-1 1-1h1c.553 0 1 .446 1 1s-.447 1-1 1z"/></g><g><path d="m36.495 49.999h-1c-.554 0-1-.446-1-1s.446-1 1-1h1c.553 0 1 .446 1 1s-.447 1-1 1z"/></g></g></g></svg>