<svg id="icons" enable-background="new 0 0 64 64" height="512" viewBox="0 0 64 64" width="512" xmlns="http://www.w3.org/2000/svg"><g><path d="m1 51.5h18c.553 0 1-.447 1-1v-4.004c0-2.206-1.794-4-4-4-.011 0-.019.006-.029.006h-1.971v-2.094c2.386-1.385 3.998-3.961 4-6.911v-.001-4.501c0-2.198-.846-4.197-2.22-5.707-.022-.029-.048-.055-.074-.082-1.553-1.664-3.757-2.711-6.207-2.711-4.687 0-8.499 3.813-8.499 8.5v.496c0 .042.02.079.024.12.008.067.018.131.039.194.021.062.048.116.08.171.031.056.063.108.105.157s.088.089.139.129c.05.04.099.075.156.105.059.031.12.05.186.069.04.012.072.036.114.042.055.009.102.011.157.019v2.999.001c.002 2.95 1.614 5.526 4 6.911v2.094h-1.971c-.011 0-.019-.006-.029-.006-2.206 0-4 1.794-4 4v4.004c0 .553.447 1 1 1zm3.999-6.998h1.239c.541 1.173 1.992 1.998 3.762 1.998s3.221-.825 3.762-1.998h1.239v4.998h-10.002zm13.001 1.994v3.004h-.999v-4.725c.595.347.999.985.999 1.721zm-2.831-20.672c.331.591.574 1.237.708 1.922-.457-.347-.889-.568-1.312-.694zm-5.67-3.329c1.64 0 3.136.615 4.28 1.621l-1.481 3.018c-.396.117-.806.271-1.242.444-1.66.658-3.918 1.525-8.036 1.032.201-3.405 3.026-6.115 6.479-6.115zm-5.499 10.997v-2.778c3.881.255 6.191-.645 7.792-1.278 1.885-.746 2.446-.961 4.208 1.275v2.781c0 3.308-2.691 5.998-6 5.998s-6-2.69-6-5.998zm6 7.998c.691 0 1.359-.098 2-.264v2.27.001.001c0 .408-.779 1.002-2 1.002s-2-.594-2-1.002v-2.271c.641.166 1.309.263 2 .263zm-7.001 3.285v4.725h-.999v-3.004c0-.736.404-1.374.999-1.721z"/><path d="m60 42.496c-.011 0-.019.006-.029.006h-1.971v-2.088c2.385-1.385 3.997-3.959 4-6.908 0-.001 0-.001 0-.002v-3.004s0 0 0-.001v-1.999c0-4.409-3.589-7.996-8-7.996s-8 3.587-8 7.996v5.003.002c.003 2.949 1.615 5.523 4 6.908v2.088h-1.971c-.011 0-.019-.006-.029-.006-2.206 0-4 1.794-4 4v4.005c0 .553.447 1 1 1h18c.553 0 1-.447 1-1v-4.004c0-2.206-1.794-4-4-4zm2 4v3.004h-.999v-4.725c.595.347.999.985.999 1.721zm-13.001-1.994h1.239c.541 1.173 1.992 1.998 3.762 1.998s3.221-.825 3.762-1.998h1.239v4.998h-10.002zm5.001-21.998c3.168 0 5.765 2.469 5.979 5.582l-.244-.242c-.279-.311-.727-.433-1.131-.257-.021.009-2.186.932-4.667.932-2.447 0-4.499-.923-4.52-.933-.4-.181-.851-.069-1.137.233l-.259.261c.218-3.11 2.813-5.576 5.979-5.576zm-6 10.994v-2.561l1.261-1.267c.911.331 2.65.848 4.676.848 2.05 0 3.868-.524 4.8-.848l1.263 1.252v2.576c0 3.308-2.691 5.998-6 5.998s-6-2.69-6-5.998zm6 7.998c.691 0 1.359-.098 2-.264v2.264.001.001c0 .408-.779 1.002-2 1.002s-2-.594-2-1.002v-2.266c.641.166 1.309.264 2 .264zm-7.001 3.279v4.725h-.999v-3.004c0-.736.404-1.374.999-1.721z"/><path d="m25 51.5c-3.309 0-6 2.691-6 6v4c0 1.103.897 2 2 2h22c1.103 0 2-.897 2-2v-4c0-3.309-2.691-6-6-6h-2v-2.354c2.984-1.732 5-4.955 5-8.646v-6.004c0-2.415-1.721-4.436-4-4.9v-3.101c0-.552-.447-1-1-1h-6c-4.963 0-9 4.038-9 9.001v6.053c0 .006.003.011.003.017.024 3.664 2.031 6.859 4.997 8.582v2.352zm18 6v4h-21.995c-.002 0-.003-.001-.005-.001v-3.999c0-2.206 1.794-4 4-4h2.179c.561 1.721 2.5 3 4.821 3s4.261-1.279 4.821-3h2.179c2.206 0 4 1.794 4 4zm-12-30.005h5v3c0 .552.447 1 1 1 1.654 0 3 1.347 3 3.001v1.146l-1.44-.974c-.041-.028-.088-.034-.132-.055-.055-.027-.105-.054-.164-.069-.071-.02-.142-.026-.214-.029-.056-.003-.108-.007-.165-.001-.072.009-.14.03-.209.055-.039.014-.079.012-.117.03-.019.01-1.881.897-5.059.897-3.277 0-6.156-.939-6.186-.949-.021-.007-.041-.002-.062-.007-.07-.02-.14-.022-.213-.025-.059-.003-.114-.008-.172 0-.064.009-.124.031-.187.053-.063.021-.124.042-.182.075-.02.012-.041.013-.06.025l-1.438.974v-1.146c0-3.861 3.141-7.001 7-7.001zm-7 13.005v-2.446l2.165-1.463c1.013.288 3.505.905 6.335.905 2.659 0 4.514-.549 5.384-.873l2.116 1.431v2.446c0 4.411-3.589 8-8.001 8-4.411 0-7.999-3.589-7.999-8zm7.999 10c1.045 0 2.053-.163 3.001-.462v2.458c0 1.086-1.374 2.004-3 2.004s-3-.918-3-2.004v-2.457c.947.299 1.954.461 2.999.461z"/><path d="m18.004 12.5h1.998v2.002c0 2.206 1.794 4.001 4 4.001s4-1.795 4-4.001v-2.002h7.996v2.002c0 2.206 1.794 4.001 4 4.001s4-1.795 4-4.001v-2.002h1.998c.553 0 1-.448 1-1v-4c0-.552-.447-1-1-1h-1.998v-2c0-2.206-1.794-4-4-4s-4 1.794-4 4v2h-7.996v-2c0-2.206-1.794-4-4-4s-4 1.794-4 4v2h-1.998c-.553 0-1 .448-1 1v4c0 .553.447 1 1 1zm26.992-4v2h-.998v-2zm-4.998-6c1.103 0 2 .897 2 2v3 4 3.002c0 1.104-.897 2.001-2 2.001s-2-.897-2-2.001v-10.002c0-1.103.898-2 2-2zm-4 6v2h-7.996v-2zm-11.996-6c1.103 0 2 .897 2 2v10.002c0 1.104-.897 2.001-2 2.001s-2-.897-2-2.001v-3.002-4-3c0-1.103.897-2 2-2zm-4.998 6h.998v2h-.998z"/></g></svg>